HIERARCHY
ROOT Hips
{
	OFFSET 52.431801 2.425726 86.562698
	CHANNELS 6 Xposition Yposition Zposition Xrotation Yrotation Zrotation
	JOINT spine
	{
		OFFSET 0.000000 -0.393701 6.846367
		CHANNELS 3 Xrotation Yrotation Zrotation
		JOINT spine1
		{
			OFFSET 0.000000 -0.000001 9.496208
			CHANNELS 3 Xrotation Yrotation Zrotation
			JOINT spine2
			{
				OFFSET 0.000000 -0.000002 9.099091
				CHANNELS 3 Xrotation Yrotation Zrotation
				JOINT Neck
				{
					OFFSET 0.000000 -1.113784 23.361206
					CHANNELS 3 Xrotation Yrotation Zrotation
					JOINT Head
					{
						OFFSET 0.000000 -0.000001 7.058014
						CHANNELS 3 Xrotation Yrotation Zrotation
						End Site
						{
							OFFSET 0.000000 5.634188 17.084396
						}
					}
				}
				JOINT RightShoulder
				{
					OFFSET -3.831360 0.533490 9.826309
					CHANNELS 3 Xrotation Yrotation Zrotation
					JOINT RightArm
					{
						OFFSET 0.000000 -0.000002 12.888107
						CHANNELS 3 Xrotation Yrotation Zrotation
						JOINT RightArmRoll
						{
							OFFSET 0.000000 -0.000001 6.506165
							CHANNELS 3 Xrotation Yrotation Zrotation
							JOINT RightForeArm
							{
								OFFSET 0.000000 -0.000003 18.950104
								CHANNELS 3 Xrotation Yrotation Zrotation
								JOINT RightForeArmRoll
								{
									OFFSET 0.000000 -0.000001 7.300919
									CHANNELS 3 Xrotation Yrotation Zrotation
									JOINT RightHand
									{
										OFFSET 0.000000 -0.000002 14.651398
										CHANNELS 3 Xrotation Yrotation Zrotation
										End Site
										{
											OFFSET 0.000000 -0.000000 0.100006
										}
									}
								}
							}
						}
					}
				}
				JOINT LeftShoulder
				{
					OFFSET 3.831360 0.533490 9.826309
					CHANNELS 3 Xrotation Yrotation Zrotation
					JOINT LeftArm
					{
						OFFSET 0.000000 -0.000002 12.888107
						CHANNELS 3 Xrotation Yrotation Zrotation
						JOINT LeftArmRoll
						{
							OFFSET 0.000000 -0.000001 6.506165
							CHANNELS 3 Xrotation Yrotation Zrotation
							JOINT LeftForeArm
							{
								OFFSET 0.000000 -0.000003 18.950104
								CHANNELS 3 Xrotation Yrotation Zrotation
								JOINT LeftForeArmRoll
								{
									OFFSET 0.000000 -0.000001 7.300919
									CHANNELS 3 Xrotation Yrotation Zrotation
									JOINT LeftHand
									{
										OFFSET 0.000000 -0.000002 14.651398
										CHANNELS 3 Xrotation Yrotation Zrotation
										End Site
										{
											OFFSET 0.000000 -0.000000 0.100006
										}
									}
								}
							}
						}
					}
				}
			}
		}
	}
	JOINT RightUpLeg
	{
		OFFSET -6.068371 0.933477 -1.112778
		CHANNELS 3 Xrotation Yrotation Zrotation
		JOINT RightUpLegRoll
		{
			OFFSET 0.000000 -0.000003 17.179596
			CHANNELS 3 Xrotation Yrotation Zrotation
			JOINT RightLeg
			{
				OFFSET 0.000000 0.000003 -21.274300
				CHANNELS 3 Xrotation Yrotation Zrotation
				JOINT RightLegRoll
				{
					OFFSET 0.000000 -0.000003 21.343903
					CHANNELS 3 Xrotation Yrotation Zrotation
					JOINT RightFoot
					{
						OFFSET 0.000000 -0.000003 17.765198
						CHANNELS 3 Xrotation Yrotation Zrotation
						JOINT RightToeBase
						{
							OFFSET 0.000000 -0.000002 14.850807
							CHANNELS 3 Xrotation Yrotation Zrotation
							End Site
							{
								OFFSET 0.006294 0.829003 7.192139
							}
						}
					}
				}
			}
		}
	}
	JOINT LeftUpLeg
	{
		OFFSET 6.068371 0.933477 -1.112778
		CHANNELS 3 Xrotation Yrotation Zrotation
		JOINT LeftUpLegRoll
		{
			OFFSET 0.000000 -0.000003 17.179703
			CHANNELS 3 Xrotation Yrotation Zrotation
			JOINT LeftLeg
			{
				OFFSET 0.000000 -0.000004 21.274200
				CHANNELS 3 Xrotation Yrotation Zrotation
				JOINT LeftLegRoll
				{
					OFFSET 0.000000 -0.000003 21.541199
					CHANNELS 3 Xrotation Yrotation Zrotation
					JOINT LeftFoot
					{
						OFFSET 0.000000 -0.000003 17.567902
						CHANNELS 3 Xrotation Yrotation Zrotation
						JOINT LeftToeBase
						{
							OFFSET 0.000000 -0.000003 14.850800
							CHANNELS 3 Xrotation Yrotation Zrotation
							End Site
							{
								OFFSET -0.028210 0.829004 7.192123
							}
						}
					}
				}
			}
		}
	}
}
MOTION
Frames: 9
Frame Time: 0.041667
51.426003 -0.791073 92.814903 10.011065 -0.324194 -0.274510 -3.017584 -1.253610 -0.006553 -2.033837 -2.506372 -0.066827 -0.388094 -2.506993 -0.036780 -21.108826 24.818061 4.226727 18.981246 -24.772471 1.097352 -7.382757 -33.967641 -6.430444 -179.680639 -64.079653 -228.153672 -0.000002 0.000017 -0.000006 77.065052 17.700831 -6.425219 -0.000003 0.000002 -3.004869 -5.000125 -7.999610 0.000083 -34.282465 64.444577 39.967719 -0.478539 78.617608 27.195271 -0.000005 0.000020 0.000003 86.555921 -9.206806 9.217413 -0.000001 -0.000005 2.999989 -5.000198 7.999331 -0.000106 -16.570365 -176.941269 -1.012647 -179.999991 0.000005 -0.857006 166.396918 -4.076758 -0.780579 0.000002 -0.000000 0.189130 65.968938 6.803567 2.536698 25.456959 -7.355616 -0.000001 -17.955579 177.790972 0.772422 -0.000004 -0.000004 -0.849045 -18.709039 3.030780 0.831625 -0.000011 0.000003 -0.306887 73.249729 -6.726132 -2.283862 25.456894 7.356287 0.000002 
51.415405 -0.779997 92.793396 9.962136 -0.306460 -0.292866 -3.012133 -1.254505 0.009243 -2.022590 -2.508848 -0.035152 -0.376851 -2.509075 -0.005077 -20.774025 24.715250 4.097388 18.772751 -24.632403 1.001504 -7.442240 -34.185763 -6.536757 -179.349498 -64.288561 -227.697115 -0.000002 0.000018 -0.000005 76.882638 17.610125 -6.292325 -0.000002 0.000003 -3.004877 -5.000121 -7.999607 0.000086 -34.172167 64.395836 39.846538 -0.477794 78.688916 27.070437 -0.000002 0.000019 0.000004 86.297022 -9.057756 8.999084 0.000001 -0.000006 2.999991 -5.000197 7.999331 -0.000115 -16.649375 -176.979887 -1.027122 -179.999991 0.000005 -0.864997 166.018184 -4.020658 -0.795189 0.000003 -0.000000 0.193105 66.035252 6.801333 2.538505 25.456960 -7.355616 -0.000000 -18.004145 177.764949 0.713154 -0.000005 -0.000004 -0.852159 -19.000314 3.053757 0.848941 -0.000010 0.000003 -0.309914 73.268491 -6.726010 -2.283017 25.456892 7.356259 0.000006 
51.536602 -0.825840 92.774193 9.911979 -0.290084 -0.309648 -3.006773 -1.255899 0.024505 -2.011524 -2.512273 -0.004567 -0.365787 -2.512138 0.025547 -20.439631 24.623016 3.972896 18.567185 -24.502066 0.909085 -7.500196 -34.391273 -6.639434 -179.023124 -64.482764 -227.240407 -0.000001 0.000018 -0.000006 76.690027 17.511569 -6.151070 -0.000005 0.000003 -3.004877 -5.000123 -7.999615 0.000087 -34.072672 64.357444 39.736702 -0.467258 78.759328 26.921419 -0.000004 0.000017 0.000003 86.028329 -8.900708 8.772456 -0.000001 -0.000005 2.999991 -5.000200 7.999333 -0.000115 -16.716944 -177.013532 -1.037224 -179.999991 0.000005 -0.872005 165.661553 -3.970760 -0.808062 0.000002 -0.000000 0.196962 66.097872 6.799303 2.540186 25.456962 -7.355617 -0.000000 -18.048579 177.741726 0.655402 -0.000005 -0.000004 -0.855347 -19.287399 3.076588 0.866206 -0.000008 0.000003 -0.312907 73.288872 -6.725908 -2.281979 25.456894 7.356234 0.000007 
51.483704 -0.788141 92.732193 9.860634 -0.275410 -0.324648 -3.001523 -1.257843 0.038998 -2.000711 -2.516776 0.024452 -0.354973 -2.516292 0.054618 -20.107788 24.544273 3.854455 18.366380 -24.384556 0.821021 -7.555811 -34.580455 -6.736930 -178.704250 -64.659345 -226.785203 -0.000002 0.000018 -0.000003 76.486159 17.403612 -6.000334 -0.000002 -0.000000 -3.004890 -5.000125 -7.999612 0.000086 -33.987004 64.331516 39.641400 -0.450139 78.826257 26.748737 -0.000001 0.000022 0.000003 85.750771 -8.735232 8.537705 -0.000001 -0.000005 2.999987 -5.000201 7.999331 -0.000112 -16.770665 -177.043093 -1.041650 -179.999991 0.000005 -0.878999 165.332488 -3.927143 -0.819969 0.000002 -0.000000 0.200658 66.155232 6.797469 2.541638 25.456957 -7.355617 0.000000 -18.088248 177.723230 0.599343 -0.000005 -0.000004 -0.858608 -19.569587 3.099101 0.883329 -0.000009 0.000003 -0.315869 73.311508 -6.725743 -2.280798 25.456895 7.356206 0.000012 
51.436802 -0.795333 92.677589 9.808188 -0.262780 -0.337659 -2.996436 -1.260405 0.052483 -1.990220 -2.522460 0.051427 -0.344480 -2.521654 0.081658 -19.780527 24.482203 3.743212 18.171804 -24.283134 0.738062 -7.608263 -34.749458 -6.827654 -178.395826 -64.814363 -226.333276 -0.000001 0.000016 -0.000007 76.270188 17.284354 -5.838908 -0.000003 0.000000 -3.004895 -5.000120 -7.999608 0.000086 -33.918071 64.320465 39.563813 -0.429775 78.887093 26.552856 -0.000004 0.000020 0.000003 85.465221 -8.561150 8.295299 -0.000000 -0.000006 2.999994 -5.000198 7.999331 -0.000112 -16.807951 -177.066657 -1.039950 -179.999991 0.000005 -0.885993 165.036304 -3.890876 -0.831001 0.000001 -0.000000 0.204149 66.205686 6.795858 2.542969 25.456962 -7.355616 -0.000001 -18.122773 177.708477 0.546090 -0.000003 -0.000004 -0.861938 -19.845974 3.121163 0.900215 -0.000009 0.000003 -0.318805 73.336745 -6.725574 -2.279458 25.456885 7.356179 0.000004 
51.436703 -0.762306 92.719994 9.754697 -0.252538 -0.348476 -2.991529 -1.263636 0.064724 -1.980130 -2.529440 0.075878 -0.334380 -2.528337 0.106193 -19.459873 24.440111 3.640267 17.985223 -24.200941 0.660992 -7.656695 -34.894460 -6.910002 -178.100980 -64.944943 -225.886473 0.000001 0.000015 -0.000003 76.041179 17.152212 -5.665841 -0.000005 0.000001 -3.004891 -5.000119 -7.999610 0.000081 -33.869071 64.326524 39.507334 -0.409589 78.939310 26.334409 -0.000001 0.000018 0.000003 85.172684 -8.377986 8.045422 -0.000000 -0.000005 2.999989 -5.000198 7.999329 -0.000111 -16.826106 -177.084184 -1.031094 -179.999991 0.000005 -0.892004 164.778778 -3.863010 -0.840184 0.000003 -0.000000 0.207391 66.247651 6.794477 2.544174 25.456957 -7.355616 -0.000000 -18.151520 177.699351 0.495822 -0.000005 -0.000004 -0.865338 -20.115751 3.142596 0.916758 -0.000009 0.000003 -0.321719 73.365084 -6.725321 -2.278120 25.456887 7.356150 0.000007 
51.497902 -0.756037 92.653793 9.700541 -0.245005 -0.356410 -2.986962 -1.267606 0.075973 -1.970743 -2.537830 0.098311 -0.324999 -2.536459 0.128725 -19.139452 24.417605 3.544289 17.803581 -24.136097 0.588948 -7.702798 -35.016665 -6.986442 -177.817008 -65.052108 -225.445338 -0.000002 0.000017 -0.000008 75.797437 17.008342 -5.480960 -0.000004 0.000002 -3.004903 -5.000124 -7.999611 0.000081 -33.837720 64.348906 39.469512 -0.374414 78.985865 26.079547 -0.000003 0.000020 0.000002 84.870175 -8.182177 7.785343 0.000001 -0.000004 2.999989 -5.000200 7.999334 -0.000113 -16.829364 -177.093800 -1.017225 -179.999991 0.000005 -0.897004 164.554106 -3.842472 -0.849796 0.000002 -0.000000 0.210427 66.283332 6.793403 2.544939 25.445740 -7.355621 0.001090 -18.178688 177.695909 0.448271 -0.000005 -0.000004 -0.868894 -20.386050 3.163794 0.933337 -0.000009 0.000003 -0.324692 73.397110 -6.725085 -2.276463 25.456887 7.356133 0.000007 
51.474705 -0.746490 92.614304 9.645875 -0.240029 -0.361201 -2.982837 -1.272264 0.086690 -1.962249 -2.547586 0.119642 -0.316493 -2.545971 0.150171 -18.811951 24.410881 3.452603 17.622721 -24.083616 0.520210 -7.748652 -35.121103 -7.060480 -177.539457 -65.139862 -225.009340 -0.000002 0.000015 -0.000004 75.538798 16.855401 -5.285611 -0.000002 0.000002 -3.004905 -5.000124 -7.999611 0.000085 -33.819808 64.384430 39.445691 -0.308695 79.032044 25.777084 -0.000003 0.000020 0.000003 84.554839 -7.971002 7.512839 0.000003 -0.000005 2.999992 -5.000201 7.999330 -0.000114 -16.823569 -177.099442 -0.999529 -179.999991 0.000005 -0.902003 164.351727 -3.826197 -0.858844 0.000002 -0.000000 0.213339 66.316492 6.792594 2.545412 25.415137 -7.355628 0.004055 -18.208180 177.698190 0.402316 -0.000004 -0.000004 -0.872671 -20.663081 3.185193 0.950342 -0.000009 0.000003 -0.327780 73.432819 -6.724821 -2.274482 25.456887 7.356108 0.000009 
51.521305 -0.755971 92.561401 9.590524 -0.237242 -0.363285 -2.979053 -1.277552 0.096948 -1.954439 -2.558592 0.140023 -0.308680 -2.556723 0.170683 -18.478150 24.417826 3.364267 17.442507 -24.042093 0.454261 -7.794100 -35.210301 -7.132168 -177.268954 -65.210220 -224.578587 -0.000002 0.000017 -0.000005 75.267045 16.693896 -5.081230 -0.000003 -0.000000 -3.004912 -5.000125 -7.999611 0.000083 -33.813449 64.431900 39.433961 -0.215374 79.078318 25.431304 -0.000004 0.000020 0.000003 84.227741 -7.745531 7.229508 0.000001 -0.000005 2.999989 -5.000200 7.999331 -0.000107 -16.808858 -177.099224 -0.978737 -179.999991 0.000005 -0.906006 164.169921 -3.814121 -0.867524 0.000002 -0.000000 0.216142 66.347413 6.792016 2.545375 25.369585 -7.355654 0.008468 -18.238536 177.704296 0.358075 -0.000005 -0.000004 -0.876636 -20.944637 3.206761 0.967693 -0.000010 0.000003 -0.330946 73.471566 -6.724530 -2.272416 25.456887 7.356079 0.000012 
